<svg width="128" height="18" viewBox="0 0 128 18" fill="none" xmlns="http://www.w3.org/2000/svg">
<path d="M0.837713 17V0.272727H6.80007C8.10144 0.272727 9.17957 0.509587 10.0344 0.983309C10.8893 1.45703 11.5291 2.10499 11.9538 2.9272C12.3786 3.74396 12.5909 4.66418 12.5909 5.68785C12.5909 6.71697 12.3758 7.64264 11.9457 8.46484C11.521 9.2816 10.8784 9.92957 10.0181 10.4087C9.16323 10.8825 8.08783 11.1193 6.7919 11.1193H2.69176V8.9794H6.56321C7.38542 8.9794 8.05244 8.83783 8.56428 8.55469C9.07611 8.2661 9.45182 7.87405 9.69141 7.37855C9.93099 6.88305 10.0508 6.31948 10.0508 5.68785C10.0508 5.05623 9.93099 4.49538 9.69141 4.00533C9.45182 3.51527 9.07339 3.13139 8.55611 2.85369C8.04427 2.57599 7.36908 2.43714 6.53054 2.43714H3.36151V17H0.837713ZM15.5496 17V0.272727H21.512C22.8079 0.272727 23.8833 0.495975 24.7382 0.942471C25.5985 1.38897 26.241 2.00698 26.6657 2.79652C27.0905 3.58061 27.3028 4.48722 27.3028 5.51634C27.3028 6.54001 27.0877 7.44117 26.6576 8.21982C26.2329 8.99302 25.5903 9.5947 24.73 10.0249C23.8751 10.455 22.7997 10.6701 21.5038 10.6701H16.9871V8.49751H21.2751C22.0919 8.49751 22.7562 8.38044 23.268 8.14631C23.7853 7.91217 24.1637 7.57185 24.4033 7.12535C24.6429 6.67886 24.7627 6.14252 24.7627 5.51634C24.7627 4.88471 24.6402 4.33748 24.3952 3.87464C24.1556 3.41181 23.7771 3.05788 23.2599 2.81286C22.748 2.56238 22.0756 2.43714 21.2425 2.43714H18.0734V17H15.5496ZM23.8071 9.45312L27.9399 17H25.0649L21.0138 9.45312H23.8071ZM44.904 8.63636C44.904 10.4223 44.5773 11.9579 43.9239 13.2429C43.2705 14.5225 42.3748 15.508 41.2368 16.1996C40.1042 16.8857 38.8164 17.2287 37.3735 17.2287C35.9251 17.2287 34.6319 16.8857 33.4939 16.1996C32.3613 15.508 31.4683 14.5198 30.8149 13.2347C30.1615 11.9497 29.8348 10.4169 29.8348 8.63636C29.8348 6.85038 30.1615 5.31759 30.8149 4.038C31.4683 2.75296 32.3613 1.7674 33.4939 1.08132C34.6319 0.389796 35.9251 0.0440335 37.3735 0.0440335C38.8164 0.0440335 40.1042 0.389796 41.2368 1.08132C42.3748 1.7674 43.2705 2.75296 43.9239 4.038C44.5773 5.31759 44.904 6.85038 44.904 8.63636ZM42.4047 8.63636C42.4047 7.27509 42.1842 6.12891 41.7432 5.1978C41.3076 4.26124 40.7086 3.55339 39.9463 3.07422C39.1894 2.58961 38.3318 2.3473 37.3735 2.3473C36.4097 2.3473 35.5494 2.58961 34.7925 3.07422C34.0357 3.55339 33.4367 4.26124 32.9956 5.1978C32.56 6.12891 32.3422 7.27509 32.3422 8.63636C32.3422 9.99763 32.56 11.1465 32.9956 12.0831C33.4367 13.0142 34.0357 13.7221 34.7925 14.2067C35.5494 14.6858 36.4097 14.9254 37.3735 14.9254C38.3318 14.9254 39.1894 14.6858 39.9463 14.2067C40.7086 13.7221 41.3076 13.0142 41.7432 12.0831C42.1842 11.1465 42.4047 9.99763 42.4047 8.63636ZM54.552 0.272727H57.0676V12.1321C57.0676 13.2048 56.8553 14.1223 56.4306 14.8846C56.0113 15.6469 55.4205 16.2295 54.6582 16.6325C53.8959 17.0299 53.0029 17.2287 51.9792 17.2287C51.0372 17.2287 50.1905 17.0572 49.4391 16.7141C48.6931 16.3711 48.1023 15.8729 47.6667 15.2195C47.2366 14.5606 47.0215 13.7602 47.0215 12.8182H49.5289C49.5289 13.281 49.6351 13.6812 49.8475 14.0188C50.0653 14.3564 50.362 14.6205 50.7377 14.8111C51.1189 14.9962 51.5545 15.0888 52.0446 15.0888C52.5782 15.0888 53.0301 14.9772 53.4004 14.7539C53.7761 14.5252 54.062 14.1903 54.258 13.7493C54.454 13.3082 54.552 12.7692 54.552 12.1321V0.272727ZM60.741 17V0.272727H71.2282V2.44531H63.2648V7.5419H70.681V9.70632H63.2648V14.8274H71.3263V17H60.741ZM88.4925 5.71236H85.9442C85.8462 5.16785 85.6638 4.68868 85.397 4.27486C85.1302 3.86103 84.8035 3.50982 84.4169 3.22123C84.0303 2.93265 83.5974 2.71484 83.1183 2.56783C82.6445 2.42081 82.1409 2.3473 81.6072 2.3473C80.6435 2.3473 79.7804 2.58961 79.0181 3.07422C78.2612 3.55883 77.6623 4.26941 77.2212 5.20597C76.7856 6.14252 76.5678 7.28598 76.5678 8.63636C76.5678 9.99763 76.7856 11.1465 77.2212 12.0831C77.6623 13.0196 78.264 13.7275 79.0263 14.2067C79.7886 14.6858 80.6462 14.9254 81.5991 14.9254C82.1272 14.9254 82.6282 14.8546 83.1019 14.7131C83.5811 14.5661 84.014 14.351 84.4006 14.0678C84.7872 13.7847 85.1139 13.4389 85.3807 13.0305C85.6529 12.6167 85.8408 12.143 85.9442 11.6094L88.4925 11.6175C88.3564 12.4397 88.0923 13.1966 87.7003 13.8881C87.3137 14.5742 86.8155 15.1677 86.2056 15.6687C85.6012 16.1642 84.9097 16.5481 84.131 16.8203C83.3524 17.0926 82.503 17.2287 81.5827 17.2287C80.1344 17.2287 78.8439 16.8857 77.7113 16.1996C76.5787 15.508 75.6857 14.5198 75.0323 13.2347C74.3844 11.9497 74.0604 10.4169 74.0604 8.63636C74.0604 6.85038 74.3871 5.31759 75.0405 4.038C75.6939 2.75296 76.5869 1.7674 77.7195 1.08132C78.852 0.389796 80.1398 0.0440335 81.5827 0.0440335C82.4703 0.0440335 83.2979 0.171993 84.0657 0.427912C84.8389 0.678385 85.5331 1.04865 86.1484 1.53871C86.7637 2.02332 87.2728 2.61683 87.6758 3.31925C88.0787 4.01622 88.351 4.81392 88.4925 5.71236ZM90.6876 2.44531V0.272727H103.633V2.44531H98.4142V17H95.8985V2.44531H90.6876ZM112.32 7.57457V9.69815H104.903V7.57457H112.32ZM116.156 0.272727L120.158 6.81499H120.289L124.291 0.272727H127.215L122.004 8.63636L127.248 17H124.308L120.289 10.5476H120.158L116.14 17H113.2L118.533 8.63636L113.232 0.272727H116.156Z" fill="#012320"/>
</svg>
