<svg width="34" height="34" viewBox="0 0 34 34" fill="none" xmlns="http://www.w3.org/2000/svg">
<rect x="0.75" y="0.75" width="32.5" height="32.5" rx="16.25" stroke="#B1CCCB" stroke-width="0.5"/>
<path d="M11 15.6667V14.3333C11 13.9797 11.1405 13.6406 11.3905 13.3905C11.6406 13.1405 11.9797 13 12.3333 13H13.6667M11 15.6667C11.8887 15.6667 13.6667 15.1333 13.6667 13M11 15.6667V18.3333M13.6667 13H20.3333M11 18.3333V19.6667C11 20.0203 11.1405 20.3594 11.3905 20.6095C11.6406 20.8595 11.9797 21 12.3333 21H13.6667M11 18.3333C11.8887 18.3333 13.6667 18.8667 13.6667 21M23 15.6667V14.3333C23 13.9797 22.8595 13.6406 22.6095 13.3905C22.3594 13.1405 22.0203 13 21.6667 13H20.3333M23 15.6667C22.1113 15.6667 20.3333 15.1333 20.3333 13M23 15.6667V18.3333M13.6667 21H16.3333" stroke="#748684" stroke-width="1.2" stroke-linecap="round" stroke-linejoin="round"/>
<path d="M17 18.3333C17.7364 18.3333 18.3334 17.7364 18.3334 17C18.3334 16.2636 17.7364 15.6667 17 15.6667C16.2636 15.6667 15.6667 16.2636 15.6667 17C15.6667 17.7364 16.2636 18.3333 17 18.3333Z" stroke="#748684" stroke-width="1.2" stroke-linecap="round" stroke-linejoin="round"/>
<path d="M19 21H23" stroke="#748684" stroke-width="1.2" stroke-linecap="round" stroke-linejoin="round"/>
</svg>
